<?xml version="1.0" encoding="UTF-8"?>
<svg id="Camada_1" data-name="Camada 1" xmlns="http://www.w3.org/2000/svg" viewBox="0 0 741.92 176.81">
  <defs>
    <style>
      .cls-1 {
        fill: #fff;
      }

      .cls-2 {
        fill: #ffbc00;
      }
    </style>
  </defs>
  <path class="cls-1" d="m61.12,107.18v24.32h-15.11c-10.77,0-19.16-2.54-25.18-7.63-6.02-5.09-9.03-13.39-9.03-24.91v-37.24H0v-23.82h11.81V15.1h29.69v22.81h19.45v23.82h-19.45v37.57c0,2.8.69,4.81,2.08,6.04,1.39,1.23,3.7,1.85,6.95,1.85h10.59Z"/>
  <path class="cls-1" d="m121.12,39.69c5.31-3.02,11.2-4.53,17.68-4.53v30.92h-8.31c-7.55,0-13.2,1.57-16.98,4.7-3.77,3.13-5.66,8.63-5.66,16.48v44.24h-30.24V36.18h30.24v15.89c3.54-5.24,7.96-9.37,13.26-12.38Z"/>
  <path class="cls-1" d="m307.49,61.72h-15.97v69.77h-29.69V61.72h-10.77v-23.82h10.77v-2.68c0-11.52,3.41-20.27,10.24-26.25,6.83-5.98,16.84-8.97,30.04-8.97,2.2,0,3.82.06,4.86.17v24.32c-5.67-.34-9.67.45-11.98,2.35-2.32,1.9-3.47,5.31-3.47,10.23v.84h15.97v23.82Z"/>
  <path class="cls-1" d="m412.19,90.77h-67.2c.46,5.82,2.4,10.26,5.82,13.33,3.41,3.08,7.61,4.61,12.59,4.61,7.41,0,12.56-3.02,15.45-9.06h31.6c-1.62,6.15-4.54,11.69-8.77,16.61-4.23,4.92-9.52,8.78-15.89,11.57-6.37,2.8-13.49,4.19-21.36,4.19-9.49,0-17.94-1.95-25.35-5.87-7.41-3.91-13.2-9.5-17.36-16.77-4.17-7.27-6.25-15.77-6.25-25.49s2.05-18.23,6.16-25.49c4.11-7.27,9.87-12.86,17.28-16.77,7.41-3.91,15.91-5.87,25.52-5.87s17.71,1.9,25,5.7c7.29,3.8,12.99,9.22,17.1,16.27,4.11,7.04,6.16,15.26,6.16,24.66,0,2.68-.17,5.48-.52,8.39Zm-29.87-15.93c0-4.92-1.74-8.83-5.21-11.74-3.47-2.91-7.81-4.36-13.02-4.36s-9.18,1.4-12.59,4.19c-3.42,2.8-5.53,6.77-6.34,11.91h37.16Z"/>
  <path class="cls-1" d="m483.12,39.78c5.15,2.68,9.12,6.21,11.89,10.57v-13.25h29.69v93.42c0,8.61-1.77,16.41-5.3,23.4-3.53,6.99-8.92,12.55-16.15,16.69-7.24,4.14-16.23,6.21-27,6.21-14.36,0-25.99-3.27-34.9-9.81-8.92-6.54-14.01-15.4-15.28-26.58h29.35c.92,3.58,3.13,6.4,6.6,8.47,3.47,2.07,7.75,3.1,12.85,3.1,6.13,0,11.03-1.71,14.67-5.12,3.65-3.41,5.47-8.86,5.47-16.35v-13.25c-2.9,4.36-6.89,7.91-11.98,10.65-5.09,2.74-11.06,4.11-17.88,4.11-7.99,0-15.22-1.98-21.7-5.95-6.48-3.97-11.61-9.62-15.37-16.94-3.76-7.32-5.64-15.79-5.64-25.41s1.88-18.06,5.64-25.33c3.76-7.27,8.88-12.86,15.37-16.77,6.48-3.91,13.72-5.87,21.7-5.87,6.83,0,12.82,1.34,17.97,4.03Zm5.73,27.17c-4.11-4.14-9.12-6.21-15.02-6.21s-10.91,2.04-15.02,6.12c-4.11,4.08-6.16,9.7-6.16,16.86s2.05,12.83,6.16,17.02c4.11,4.19,9.12,6.29,15.02,6.29s10.91-2.07,15.02-6.21c4.11-4.14,6.16-9.78,6.16-16.94s-2.06-12.8-6.16-16.94Z"/>
  <path class="cls-1" d="m641.91,37.09v93.59h-29.69v-12.75c-3.01,4.14-7.09,7.46-12.24,9.98-5.15,2.52-10.85,3.77-17.1,3.77-7.41,0-13.95-1.59-19.62-4.78-5.67-3.19-10.07-7.8-13.2-13.84-3.13-6.04-4.69-13.14-4.69-21.3v-54.68h29.52v50.82c0,6.26,1.68,11.13,5.03,14.59,3.36,3.47,7.87,5.2,13.54,5.2s10.36-1.73,13.72-5.2c3.36-3.46,5.03-8.33,5.03-14.59v-50.82h29.69Z"/>
  <path class="cls-1" d="m680.11,127.84c-6.6-2.79-11.81-6.63-15.63-11.49-3.82-4.86-5.96-10.32-6.42-16.35h29.35c.35,3.24,1.91,5.87,4.69,7.88,2.78,2.01,6.19,3.02,10.25,3.02,3.7,0,6.57-.7,8.6-2.1,2.02-1.4,3.04-3.21,3.04-5.45,0-2.68-1.45-4.67-4.34-5.95-2.89-1.28-7.58-2.71-14.06-4.28-6.95-1.56-12.74-3.21-17.36-4.95-4.63-1.73-8.63-4.47-11.98-8.22-3.36-3.74-5.04-8.81-5.04-15.18,0-5.37,1.53-10.26,4.6-14.68,3.07-4.42,7.58-7.91,13.54-10.48,5.96-2.57,13.05-3.86,21.27-3.86,12.16,0,21.73,2.91,28.74,8.72,7,5.82,11.03,13.53,12.07,23.15h-27.44c-.46-3.24-1.94-5.81-4.43-7.72-2.49-1.9-5.76-2.85-9.81-2.85-3.47,0-6.14.64-7.99,1.93-1.85,1.29-2.78,3.05-2.78,5.28,0,2.68,1.48,4.7,4.43,6.04,2.95,1.34,7.55,2.68,13.8,4.03,7.18,1.79,13.02,3.55,17.54,5.28,4.51,1.74,8.48,4.53,11.89,8.39,3.41,3.86,5.18,9.03,5.3,15.51,0,5.48-1.59,10.37-4.78,14.68-3.19,4.31-7.76,7.69-13.72,10.15-5.96,2.46-12.88,3.69-20.75,3.69-8.45,0-15.97-1.4-22.57-4.19Z"/>
  <path class="cls-1" d="m245.91,113.29l-42.86-70.98h-.06c-1.18-2-2.88-3.64-4.97-4.8-2.09-1.16-4.43-1.73-6.83-1.73s-4.74.57-6.83,1.73c-2.09,1.16-3.78,2.81-4.99,4.8l-42.86,70.98c-1.27,2.13-1.86,4.61-1.64,7.07.23,2.45,1.27,4.77,2.96,6.66,1.78,1.97,4.23,3.51,6.86,4.15,2.77.67,5.62.32,8.01-1.21l36.6-23.17c.56-.35,1.21-.57,1.89-.57s1.33.22,1.89.57l36.6,23.17c2.4,1.54,5.25,1.89,8.01,1.21,2.62-.62,5.11-2.19,6.86-4.15,1.69-1.89,2.77-4.18,2.99-6.66.25-2.45-.34-4.94-1.64-7.07Zm-98.11,9.42c-.2.13-.56.08-.76.03-.02,0-.04-.01-.06-.02h.82s16.9-10.71,16.9-10.71h0s-16.9,10.7-16.9,10.7Z"/>
  <ellipse class="cls-2" cx="191.28" cy="123.48" rx="8.09" ry="7.73"/>
</svg>